<?xml version="1.0" encoding="UTF-8" standalone="no"?>
<!-- Created with Inkscape (http://www.inkscape.org/) -->

<svg
   xmlns:dc="http://purl.org/dc/elements/1.1/"
   xmlns:cc="http://creativecommons.org/ns#"
   xmlns:rdf="http://www.w3.org/1999/02/22-rdf-syntax-ns#"
   xmlns:svg="http://www.w3.org/2000/svg"
   xmlns="http://www.w3.org/2000/svg"
   xmlns:sodipodi="http://sodipodi.sourceforge.net/DTD/sodipodi-0.dtd"
   xmlns:inkscape="http://www.inkscape.org/namespaces/inkscape"
   width="360"
   height="360"
   viewBox="0 0 95.249997 95.250002"
   version="1.1"
   id="svg8"
   inkscape:version="0.92.1 r15371"
   sodipodi:docname="ME.svg"
   inkscape:export-filename="C:\Users\connor\Pictures\designs\me\me_circle.png"
   inkscape:export-xdpi="136.53334"
   inkscape:export-ydpi="136.53334">
  <defs
     id="defs2" />
  <sodipodi:namedview
     id="base"
     pagecolor="#ffffff"
     bordercolor="#666666"
     borderopacity="1.0"
     inkscape:pageopacity="0.0"
     inkscape:pageshadow="2"
     inkscape:zoom="1.4"
     inkscape:cx="168.41088"
     inkscape:cy="26.615637"
     inkscape:document-units="px"
     inkscape:current-layer="layer1"
     showgrid="false"
     units="px"
     fit-margin-top="20"
     fit-margin-left="20"
     fit-margin-right="20"
     fit-margin-bottom="20"
     inkscape:window-width="3840"
     inkscape:window-height="2035"
     inkscape:window-x="-13"
     inkscape:window-y="-13"
     inkscape:window-maximized="1" />
  <metadata
     id="metadata5">
    <rdf:RDF>
      <cc:Work
         rdf:about="">
        <dc:format>image/svg+xml</dc:format>
        <dc:type
           rdf:resource="http://purl.org/dc/dcmitype/StillImage" />
        <dc:title></dc:title>
      </cc:Work>
    </rdf:RDF>
  </metadata>
  <g
     inkscape:label="Layer 1"
     inkscape:groupmode="layer"
     id="layer1"
     transform="translate(-57.15694,-6.0148349)">
    <g
       id="g4499"
       transform="translate(9.0714286,-26.83631)">
      <text
         transform="scale(1.1782019,0.84875096)"
         id="text4487"
         y="116.57307"
         x="81.64753"
         style="font-style:normal;font-variant:normal;font-weight:bold;font-stretch:normal;font-size:62.66641235px;line-height:1.25;font-family:'Libre Baskerville';-inkscape-font-specification:'Libre Baskerville Bold';text-align:center;text-anchor:middle;opacity:1;fill:#000000;fill-opacity:1;stroke:none;stroke-width:0.41092193;stroke-linecap:butt;stroke-linejoin:round;stroke-miterlimit:4;stroke-dasharray:none;stroke-opacity:1"
         xml:space="preserve"><tspan
           style="font-style:normal;font-variant:normal;font-weight:normal;font-stretch:normal;font-family:Lobster;-inkscape-font-specification:Lobster;fill:#000000;stroke-width:0.41092193"
           y="116.57307"
           x="81.64753"
           id="tspan4485"
           sodipodi:role="line">ch</tspan></text>
      <path
         inkscape:connector-curvature="0"
         id="circle4491"
         d="M 95.710435,38.142965 A 42.333326,42.333326 0 0 0 53.377178,80.476224 42.333326,42.333326 0 0 0 95.710435,122.80948 42.333326,42.333326 0 0 0 138.04369,80.476224 42.333326,42.333326 0 0 0 95.710435,38.142965 Z m 0,6.486491 A 35.846768,35.846768 0 0 1 131.5572,80.476224 35.846768,35.846768 0 0 1 95.710435,116.32299 35.846768,35.846768 0 0 1 59.863667,80.476224 35.846768,35.846768 0 0 1 95.710435,44.629456 Z"
         style="opacity:1;fill:#000000;fill-opacity:1;stroke:none;stroke-width:0.46403107;stroke-linecap:butt;stroke-linejoin:round;stroke-miterlimit:4;stroke-dasharray:none;stroke-opacity:1" />
    </g>
    <g
       transform="translate(9.0714286,-26.83631)"
       id="g4517">
      <text
         xml:space="preserve"
         style="font-style:normal;font-variant:normal;font-weight:bold;font-stretch:normal;font-size:62.66641235px;line-height:1.25;font-family:'Libre Baskerville';-inkscape-font-specification:'Libre Baskerville Bold';text-align:center;text-anchor:middle;opacity:1;fill:#000000;fill-opacity:1;stroke:none;stroke-width:0.41092193;stroke-linecap:butt;stroke-linejoin:round;stroke-miterlimit:4;stroke-dasharray:none;stroke-opacity:1"
         x="81.64753"
         y="116.57307"
         id="text4513"
         transform="scale(1.1782019,0.84875096)"><tspan
           sodipodi:role="line"
           id="tspan4511"
           x="81.64753"
           y="116.57307"
           style="font-style:normal;font-variant:normal;font-weight:normal;font-stretch:normal;font-family:Lobster;-inkscape-font-specification:Lobster;fill:#000000;stroke-width:0.41092193">ch</tspan></text>
      <path
         style="opacity:1;fill:#000000;fill-opacity:1;stroke:none;stroke-width:0.46403107;stroke-linecap:butt;stroke-linejoin:round;stroke-miterlimit:4;stroke-dasharray:none;stroke-opacity:1"
         d="M 95.710435,38.142965 A 42.333326,42.333326 0 0 0 53.377178,80.476224 42.333326,42.333326 0 0 0 95.710435,122.80948 42.333326,42.333326 0 0 0 138.04369,80.476224 42.333326,42.333326 0 0 0 95.710435,38.142965 Z m 0,6.486491 A 35.846768,35.846768 0 0 1 131.5572,80.476224 35.846768,35.846768 0 0 1 95.710435,116.32299 35.846768,35.846768 0 0 1 59.863667,80.476224 35.846768,35.846768 0 0 1 95.710435,44.629456 Z"
         id="path4515"
         inkscape:connector-curvature="0" />
    </g>
  </g>
</svg>
